<svg width="72" height="19" viewBox="0 0 72 19" fill="none" xmlns="http://www.w3.org/2000/svg">
  <mask id="path-1-inside-1_323_5" fill="white">
    <path fill-rule="evenodd" clip-rule="evenodd" d="M30.6491 0L23.9474 6.49997L23.9474 17.2772L16.5955 9.79029L26.2093 0H17.9657L6.70175 11.4707V0L7.62939e-06 6.49997L0 19H7.55188L11.9035 14.5684L16.2551 19H23.8772H31.4993L35.8509 14.5684L40.2025 19H71.7684V6.49997H54.5965V0L47.8947 6.49997V17.2772L40.5429 9.79029L50.1567 0H41.913L30.6491 11.4707V0ZM54.5965 11V14H66V11H54.5965Z"/>
  </mask>
  <path fill-rule="evenodd" clip-rule="evenodd" d="M30.6491 0L23.9474 6.49997L23.9474 17.2772L16.5955 9.79029L26.2093 0H17.9657L6.70175 11.4707V0L7.62939e-06 6.49997L0 19H7.55188L11.9035 14.5684L16.2551 19H23.8772H31.4993L35.8509 14.5684L40.2025 19H71.7684V6.49997H54.5965V0L47.8947 6.49997V17.2772L40.5429 9.79029L50.1567 0H41.913L30.6491 11.4707V0ZM54.5965 11V14H66V11H54.5965Z" fill="black" stroke="black" stroke-width="2" mask="url(#path-1-inside-1_323_5)"/>
</svg>
